<svg xmlns="http://www.w3.org/2000/svg" xmlns:xlink="http://www.w3.org/1999/xlink" width="500" zoomAndPan="magnify" viewBox="0 0 375 374.999991" height="500" preserveAspectRatio="xMidYMid meet" version="1.0"><defs><g/><linearGradient x1="250" gradientTransform="matrix(0.75, 0, 0, 0.75, 0.0000045, 0)" y1="0" x2="250" gradientUnits="userSpaceOnUse" y2="499.999979" id="e97d89f179"><stop stop-opacity="1" stop-color="rgb(0%, 0%, 0%)" offset="0"/><stop stop-opacity="1" stop-color="rgb(0.109863%, 0.109863%, 0.109863%)" offset="0.015625"/><stop stop-opacity="1" stop-color="rgb(0.32959%, 0.32959%, 0.32959%)" offset="0.03125"/><stop stop-opacity="1" stop-color="rgb(0.549316%, 0.549316%, 0.549316%)" offset="0.046875"/><stop stop-opacity="1" stop-color="rgb(0.770569%, 0.770569%, 0.770569%)" offset="0.0625"/><stop stop-opacity="1" stop-color="rgb(0.990295%, 0.990295%, 0.990295%)" offset="0.078125"/><stop stop-opacity="1" stop-color="rgb(1.210022%, 1.210022%, 1.210022%)" offset="0.09375"/><stop stop-opacity="1" stop-color="rgb(1.431274%, 1.431274%, 1.431274%)" offset="0.109375"/><stop stop-opacity="1" stop-color="rgb(1.651001%, 1.651001%, 1.651001%)" offset="0.125"/><stop stop-opacity="1" stop-color="rgb(1.872253%, 1.872253%, 1.872253%)" offset="0.140625"/><stop stop-opacity="1" stop-color="rgb(2.09198%, 2.09198%, 2.09198%)" offset="0.15625"/><stop stop-opacity="1" stop-color="rgb(2.311707%, 2.311707%, 2.311707%)" offset="0.171875"/><stop stop-opacity="1" stop-color="rgb(2.532959%, 2.532959%, 2.532959%)" offset="0.1875"/><stop stop-opacity="1" stop-color="rgb(2.752686%, 2.752686%, 2.752686%)" offset="0.203125"/><stop stop-opacity="1" stop-color="rgb(2.972412%, 2.972412%, 2.972412%)" offset="0.21875"/><stop stop-opacity="1" stop-color="rgb(3.193665%, 3.193665%, 3.193665%)" offset="0.234375"/><stop stop-opacity="1" stop-color="rgb(3.413391%, 3.413391%, 3.413391%)" offset="0.25"/><stop stop-opacity="1" stop-color="rgb(3.634644%, 3.634644%, 3.634644%)" offset="0.265625"/><stop stop-opacity="1" stop-color="rgb(3.85437%, 3.85437%, 3.85437%)" offset="0.28125"/><stop stop-opacity="1" stop-color="rgb(4.074097%, 4.074097%, 4.074097%)" offset="0.296875"/><stop stop-opacity="1" stop-color="rgb(4.295349%, 4.295349%, 4.295349%)" offset="0.3125"/><stop stop-opacity="1" stop-color="rgb(4.515076%, 4.515076%, 4.515076%)" offset="0.328125"/><stop stop-opacity="1" stop-color="rgb(4.736328%, 4.736328%, 4.736328%)" offset="0.34375"/><stop stop-opacity="1" stop-color="rgb(4.956055%, 4.956055%, 4.956055%)" offset="0.359375"/><stop stop-opacity="1" stop-color="rgb(5.175781%, 5.175781%, 5.175781%)" offset="0.375"/><stop stop-opacity="1" stop-color="rgb(5.397034%, 5.397034%, 5.397034%)" offset="0.390625"/><stop stop-opacity="1" stop-color="rgb(5.61676%, 5.61676%, 5.61676%)" offset="0.40625"/><stop stop-opacity="1" stop-color="rgb(5.836487%, 5.836487%, 5.836487%)" offset="0.421875"/><stop stop-opacity="1" stop-color="rgb(6.057739%, 6.057739%, 6.057739%)" offset="0.4375"/><stop stop-opacity="1" stop-color="rgb(6.277466%, 6.277466%, 6.277466%)" offset="0.453125"/><stop stop-opacity="1" stop-color="rgb(6.498718%, 6.498718%, 6.498718%)" offset="0.46875"/><stop stop-opacity="1" stop-color="rgb(6.718445%, 6.718445%, 6.718445%)" offset="0.484375"/><stop stop-opacity="1" stop-color="rgb(6.938171%, 6.938171%, 6.938171%)" offset="0.5"/><stop stop-opacity="1" stop-color="rgb(7.159424%, 7.159424%, 7.159424%)" offset="0.515625"/><stop stop-opacity="1" stop-color="rgb(7.37915%, 7.37915%, 7.37915%)" offset="0.53125"/><stop stop-opacity="1" stop-color="rgb(7.600403%, 7.600403%, 7.600403%)" offset="0.546875"/><stop stop-opacity="1" stop-color="rgb(7.820129%, 7.820129%, 7.820129%)" offset="0.5625"/><stop stop-opacity="1" stop-color="rgb(8.039856%, 8.039856%, 8.039856%)" offset="0.578125"/><stop stop-opacity="1" stop-color="rgb(8.261108%, 8.261108%, 8.261108%)" offset="0.59375"/><stop stop-opacity="1" stop-color="rgb(8.480835%, 8.480835%, 8.480835%)" offset="0.609375"/><stop stop-opacity="1" stop-color="rgb(8.700562%, 8.700562%, 8.700562%)" offset="0.625"/><stop stop-opacity="1" stop-color="rgb(8.921814%, 8.921814%, 8.921814%)" offset="0.640625"/><stop stop-opacity="1" stop-color="rgb(9.141541%, 9.141541%, 9.141541%)" offset="0.65625"/><stop stop-opacity="1" stop-color="rgb(9.362793%, 9.362793%, 9.362793%)" offset="0.671875"/><stop stop-opacity="1" stop-color="rgb(9.58252%, 9.58252%, 9.58252%)" offset="0.6875"/><stop stop-opacity="1" stop-color="rgb(9.802246%, 9.802246%, 9.802246%)" offset="0.703125"/><stop stop-opacity="1" stop-color="rgb(10.023499%, 10.023499%, 10.023499%)" offset="0.71875"/><stop stop-opacity="1" stop-color="rgb(10.243225%, 10.243225%, 10.243225%)" offset="0.734375"/><stop stop-opacity="1" stop-color="rgb(10.464478%, 10.464478%, 10.464478%)" offset="0.75"/><stop stop-opacity="1" stop-color="rgb(10.684204%, 10.684204%, 10.684204%)" offset="0.765625"/><stop stop-opacity="1" stop-color="rgb(10.903931%, 10.903931%, 10.903931%)" offset="0.78125"/><stop stop-opacity="1" stop-color="rgb(11.125183%, 11.125183%, 11.125183%)" offset="0.796875"/><stop stop-opacity="1" stop-color="rgb(11.34491%, 11.34491%, 11.34491%)" offset="0.8125"/><stop stop-opacity="1" stop-color="rgb(11.564636%, 11.564636%, 11.564636%)" offset="0.828125"/><stop stop-opacity="1" stop-color="rgb(11.785889%, 11.785889%, 11.785889%)" offset="0.84375"/><stop stop-opacity="1" stop-color="rgb(12.005615%, 12.005615%, 12.005615%)" offset="0.859375"/><stop stop-opacity="1" stop-color="rgb(12.226868%, 12.226868%, 12.226868%)" offset="0.875"/><stop stop-opacity="1" stop-color="rgb(12.446594%, 12.446594%, 12.446594%)" offset="0.890625"/><stop stop-opacity="1" stop-color="rgb(12.666321%, 12.666321%, 12.666321%)" offset="0.90625"/><stop stop-opacity="1" stop-color="rgb(12.887573%, 12.887573%, 12.887573%)" offset="0.921875"/><stop stop-opacity="1" stop-color="rgb(13.1073%, 13.1073%, 13.1073%)" offset="0.9375"/><stop stop-opacity="1" stop-color="rgb(13.328552%, 13.328552%, 13.328552%)" offset="0.953125"/><stop stop-opacity="1" stop-color="rgb(13.548279%, 13.548279%, 13.548279%)" offset="0.96875"/><stop stop-opacity="1" stop-color="rgb(13.768005%, 13.768005%, 13.768005%)" offset="0.984375"/><stop stop-opacity="1" stop-color="rgb(13.989258%, 13.989258%, 13.989258%)" offset="1"/></linearGradient></defs><rect x="-37.5" fill="url(#e97d89f179)" width="450" y="-37.499999" height="449.999989"/><path stroke-linecap="butt" transform="matrix(0.830281, 0, 0, 0.830281, 28.223766, 77.902934)" fill="none" stroke-linejoin="miter" d="M 110.094146 53.86379 L 113.138109 90.904162 L 110.094146 90.904162 C 107.083117 81.706406 103.13114 74.757514 98.242921 70.05278 C 91.322257 63.292077 82.392672 59.909373 71.444756 59.909373 C 56.50252 59.909373 45.140587 65.80911 37.358957 77.617992 C 30.871129 87.643781 27.629567 99.527939 27.629567 113.270468 C 27.629567 124.401869 29.77963 134.582913 34.084462 143.804192 C 38.422227 153.030176 44.077317 159.781469 51.059143 164.053368 C 58.036263 168.325266 65.234507 170.46592 72.644463 170.46592 C 76.977523 170.46592 81.160032 169.924876 85.187284 168.852196 C 89.219241 167.774812 93.091237 166.161089 96.812682 164.00632 L 96.812682 130.198101 C 96.812682 124.29366 96.365732 120.449892 95.476538 118.666798 C 94.582638 116.855475 93.199446 115.472283 91.322257 114.517222 C 89.449773 113.533933 86.142345 113.039936 81.409383 113.039936 L 81.409383 109.812488 L 126.744201 109.812488 L 126.744201 113.039936 L 124.580023 113.039936 C 120.119935 113.039936 117.061858 114.550155 115.401087 117.561185 C 114.262541 119.715953 113.693268 123.92669 113.693268 130.198101 L 113.693268 166.038765 C 107.050184 169.572021 100.501194 172.187853 94.046298 173.876853 C 87.619632 175.570557 80.454322 176.412704 72.550368 176.412704 C 49.95353 176.412704 32.748318 169.14389 20.939435 154.596852 C 12.174515 143.74303 7.794408 131.18139 7.794408 116.916637 C 7.794408 106.646202 10.269098 96.789784 15.218478 87.352087 C 21.061758 76.126592 29.120968 67.4887 39.391402 61.429002 C 47.968132 56.385527 58.083311 53.86379 69.736937 53.86379 C 74.041769 53.86379 77.91847 54.235464 81.362335 54.974107 C 84.834429 55.679817 89.769695 57.185332 96.168133 59.490652 C 99.42381 60.723292 101.592692 61.339612 102.670076 61.339612 C 103.74746 61.339612 104.669588 60.831501 105.43646 59.815279 C 106.236265 58.799056 106.711443 56.818363 106.866699 53.86379 Z M 110.094146 53.86379 " stroke="#ff3131" stroke-width="7.084575" stroke-opacity="1" stroke-miterlimit="4"/><g fill="#ffffff" fill-opacity="0.4"><g transform="translate(146.905468, 228.649592)"><g><path d="M 63.3125 -108.796875 L 63.3125 -78.15625 L 60.875 -78.15625 C 60.113281 -84.019531 58.710938 -88.6875 56.671875 -92.15625 C 54.640625 -95.632812 51.757812 -98.40625 48.03125 -100.46875 C 44.3125 -102.539062 40.441406 -103.578125 36.421875 -103.578125 C 31.910156 -103.578125 28.175781 -102.191406 25.21875 -99.421875 C 22.257812 -96.648438 20.78125 -93.5 20.78125 -89.96875 C 20.78125 -87.300781 21.726562 -84.851562 23.625 -82.625 C 26.289062 -79.375 32.703125 -75.03125 42.859375 -69.59375 C 51.117188 -65.132812 56.753906 -61.722656 59.765625 -59.359375 C 62.785156 -57.003906 65.109375 -54.222656 66.734375 -51.015625 C 68.367188 -47.804688 69.1875 -44.4375 69.1875 -40.90625 C 69.1875 -34.226562 66.59375 -28.457031 61.40625 -23.59375 C 56.21875 -18.726562 49.519531 -16.296875 41.3125 -16.296875 C 38.757812 -16.296875 36.34375 -16.488281 34.0625 -16.875 C 32.757812 -17.082031 29.988281 -17.878906 25.75 -19.265625 C 21.507812 -20.648438 18.820312 -21.34375 17.6875 -21.34375 C 16.59375 -21.34375 15.734375 -21.015625 15.109375 -20.359375 C 14.484375 -19.710938 14.007812 -18.359375 13.6875 -16.296875 L 11.25 -16.296875 L 11.25 -46.609375 L 13.6875 -46.609375 C 14.832031 -40.253906 16.351562 -35.5 18.25 -32.34375 C 20.15625 -29.195312 23.078125 -26.59375 27.015625 -24.53125 C 30.953125 -22.46875 35.257812 -21.4375 39.9375 -21.4375 C 45.363281 -21.4375 49.648438 -22.859375 52.796875 -25.703125 C 55.953125 -28.554688 57.53125 -31.941406 57.53125 -35.859375 C 57.53125 -38.023438 56.929688 -40.222656 55.734375 -42.453125 C 54.546875 -44.679688 52.703125 -46.75 50.203125 -48.65625 C 48.515625 -49.957031 43.878906 -52.722656 36.296875 -56.953125 C 28.722656 -61.191406 23.347656 -64.570312 20.171875 -67.09375 C 16.992188 -69.625 14.578125 -72.410156 12.921875 -75.453125 C 11.265625 -78.503906 10.4375 -81.847656 10.4375 -85.484375 C 10.4375 -91.835938 12.863281 -97.3125 17.71875 -101.90625 C 22.582031 -106.5 28.789062 -108.796875 36.34375 -108.796875 C 41.019531 -108.796875 45.992188 -107.625 51.265625 -105.28125 C 53.703125 -104.195312 55.410156 -103.65625 56.390625 -103.65625 C 57.535156 -103.65625 58.457031 -103.992188 59.15625 -104.671875 C 59.863281 -105.347656 60.4375 -106.722656 60.875 -108.796875 Z M 63.3125 -108.796875 "/></g></g></g><g fill="#ffffff" fill-opacity="1"><g transform="translate(141.274332, 237.320786)"><g><path d="M 63.3125 -108.796875 L 63.3125 -78.15625 L 60.875 -78.15625 C 60.113281 -84.019531 58.710938 -88.6875 56.671875 -92.15625 C 54.640625 -95.632812 51.757812 -98.40625 48.03125 -100.46875 C 44.3125 -102.539062 40.441406 -103.578125 36.421875 -103.578125 C 31.910156 -103.578125 28.175781 -102.191406 25.21875 -99.421875 C 22.257812 -96.648438 20.78125 -93.5 20.78125 -89.96875 C 20.78125 -87.300781 21.726562 -84.851562 23.625 -82.625 C 26.289062 -79.375 32.703125 -75.03125 42.859375 -69.59375 C 51.117188 -65.132812 56.753906 -61.722656 59.765625 -59.359375 C 62.785156 -57.003906 65.109375 -54.222656 66.734375 -51.015625 C 68.367188 -47.804688 69.1875 -44.4375 69.1875 -40.90625 C 69.1875 -34.226562 66.59375 -28.457031 61.40625 -23.59375 C 56.21875 -18.726562 49.519531 -16.296875 41.3125 -16.296875 C 38.757812 -16.296875 36.34375 -16.488281 34.0625 -16.875 C 32.757812 -17.082031 29.988281 -17.878906 25.75 -19.265625 C 21.507812 -20.648438 18.820312 -21.34375 17.6875 -21.34375 C 16.59375 -21.34375 15.734375 -21.015625 15.109375 -20.359375 C 14.484375 -19.710938 14.007812 -18.359375 13.6875 -16.296875 L 11.25 -16.296875 L 11.25 -46.609375 L 13.6875 -46.609375 C 14.832031 -40.253906 16.351562 -35.5 18.25 -32.34375 C 20.15625 -29.195312 23.078125 -26.59375 27.015625 -24.53125 C 30.953125 -22.46875 35.257812 -21.4375 39.9375 -21.4375 C 45.363281 -21.4375 49.648438 -22.859375 52.796875 -25.703125 C 55.953125 -28.554688 57.53125 -31.941406 57.53125 -35.859375 C 57.53125 -38.023438 56.929688 -40.222656 55.734375 -42.453125 C 54.546875 -44.679688 52.703125 -46.75 50.203125 -48.65625 C 48.515625 -49.957031 43.878906 -52.722656 36.296875 -56.953125 C 28.722656 -61.191406 23.347656 -64.570312 20.171875 -67.09375 C 16.992188 -69.625 14.578125 -72.410156 12.921875 -75.453125 C 11.265625 -78.503906 10.4375 -81.847656 10.4375 -85.484375 C 10.4375 -91.835938 12.863281 -97.3125 17.71875 -101.90625 C 22.582031 -106.5 28.789062 -108.796875 36.34375 -108.796875 C 41.019531 -108.796875 45.992188 -107.625 51.265625 -105.28125 C 53.703125 -104.195312 55.410156 -103.65625 56.390625 -103.65625 C 57.535156 -103.65625 58.457031 -103.992188 59.15625 -104.671875 C 59.863281 -105.347656 60.4375 -106.722656 60.875 -108.796875 Z M 63.3125 -108.796875 "/></g></g></g><path stroke-linecap="butt" transform="matrix(0.782921, 0, 0, 0.782921, 224.707622, 77.89104)" fill="none" stroke-linejoin="miter" d="M 176.317109 58.918445 L 176.317109 62.346114 C 173.11895 62.346114 170.509532 62.914897 168.488854 64.057453 C 166.463186 65.200009 164.537306 67.385335 162.711212 70.618419 C 161.468869 72.738884 159.513053 77.81303 156.838773 85.840859 L 122.227804 186.091428 L 118.555659 186.091428 L 90.266169 106.596464 L 62.11638 186.091428 L 58.788498 186.091428 L 21.882439 82.857241 C 19.138308 75.153719 17.377075 70.603451 16.593751 69.196461 C 15.386333 66.846487 13.719898 65.12018 11.599433 64.00756 C 9.513894 62.899929 6.674967 62.346114 3.082651 62.346114 L 3.082651 58.918445 L 49.144127 58.918445 L 49.144127 62.346114 L 46.844047 62.346114 C 43.645887 62.346114 41.181159 63.079545 39.454852 64.546407 C 37.75848 65.983334 36.910295 67.729598 36.910295 69.785202 C 36.910295 71.940591 38.247435 76.865058 40.921714 84.568581 L 65.399358 154.36928 L 86.055176 94.996276 L 82.38303 84.568581 L 79.399412 76.196488 C 78.191995 73.162977 76.770036 70.488697 75.138526 68.168659 C 74.320276 67.026103 73.342368 66.048195 72.199812 65.234934 C 70.668088 64.15724 69.136364 63.388883 67.599651 62.934854 C 66.457095 62.540697 64.631001 62.346114 62.11638 62.346114 L 62.11638 58.918445 L 110.577723 58.918445 L 110.577723 62.346114 L 107.249841 62.346114 C 103.792237 62.346114 101.262648 63.079545 99.661073 64.546407 C 98.064488 65.983334 97.266196 67.959108 97.266196 70.46874 C 97.266196 73.602038 98.633272 79.035416 101.377402 86.768874 L 125.216412 154.36928 L 148.955634 85.840859 C 151.629914 78.272049 152.967054 73.033254 152.967054 70.129465 C 152.967054 68.692539 152.527993 67.370367 151.649872 66.162949 C 150.76676 64.925596 149.639172 64.072421 148.272096 63.618392 C 145.952059 62.770206 142.933515 62.346114 139.216466 62.346114 L 139.216466 58.918445 Z M 176.317109 58.918445 " stroke="#006032" stroke-width="15.03765" stroke-opacity="1" stroke-miterlimit="4"/><g fill="#00bf63" fill-opacity="1"><g transform="translate(224.707622, 241.521541)"><g><path d="M 138.046875 -117.5 L 138.046875 -114.8125 C 135.535156 -114.8125 133.484375 -114.363281 131.890625 -113.46875 C 130.304688 -112.570312 128.800781 -110.867188 127.375 -108.359375 C 126.414062 -106.679688 124.890625 -102.703125 122.796875 -96.421875 L 95.703125 -17.9375 L 92.828125 -17.9375 L 70.6875 -80.1875 L 48.609375 -17.9375 L 46.015625 -17.9375 L 17.125 -98.75 C 14.976562 -104.789062 13.601562 -108.347656 13 -109.421875 C 12.050781 -111.273438 10.753906 -112.632812 9.109375 -113.5 C 7.460938 -114.375 5.234375 -114.8125 2.421875 -114.8125 L 2.421875 -117.5 L 38.484375 -117.5 L 38.484375 -114.8125 L 36.6875 -114.8125 C 34.175781 -114.8125 32.242188 -114.242188 30.890625 -113.109375 C 29.546875 -111.972656 28.875 -110.597656 28.875 -108.984375 C 28.875 -107.304688 29.921875 -103.445312 32.015625 -97.40625 L 51.21875 -42.78125 L 67.359375 -89.25 L 64.484375 -97.40625 L 62.15625 -103.953125 C 61.195312 -106.347656 60.09375 -108.441406 58.84375 -110.234375 C 58.1875 -111.128906 57.410156 -111.90625 56.515625 -112.5625 C 55.316406 -113.40625 54.117188 -114.003906 52.921875 -114.359375 C 52.023438 -114.660156 50.585938 -114.8125 48.609375 -114.8125 L 48.609375 -117.5 L 86.5625 -117.5 L 86.5625 -114.8125 L 83.953125 -114.8125 C 81.265625 -114.8125 79.289062 -114.242188 78.03125 -113.109375 C 76.78125 -111.972656 76.15625 -110.414062 76.15625 -108.4375 C 76.15625 -105.988281 77.226562 -101.742188 79.375 -95.703125 L 98.03125 -42.78125 L 116.609375 -96.421875 C 118.703125 -102.335938 119.75 -106.4375 119.75 -108.71875 C 119.75 -109.851562 119.40625 -110.894531 118.71875 -111.84375 C 118.03125 -112.800781 117.144531 -113.460938 116.0625 -113.828125 C 114.269531 -114.484375 111.910156 -114.8125 108.984375 -114.8125 L 108.984375 -117.5 Z M 138.046875 -117.5 "/></g></g></g></svg>